<svg xmlns="http://www.w3.org/2000/svg" width="100" height="100" fill="none"><path fill="#070707" d="M7.632 2.288C7.632 1.024 6.932 0 6.069 0S4.507 1.024 4.507 2.288v95.424c0 1.264.7 2.288 1.562 2.288.864 0 1.563-1.024 1.563-2.288V2.288Z"/><path fill="#070707" d="M1.563 95.42C.699 95.42 0 96.444 0 97.708c0 1.264.7 2.288 1.563 2.288h9.013c.864 0 1.563-1.024 1.563-2.288 0-1.264-.7-2.288-1.563-2.288H1.563ZM95.493 2.288c0-1.264-.7-2.288-1.563-2.288s-1.562 1.024-1.562 2.288v95.424c0 1.264.7 2.288 1.562 2.288.863 0 1.563-1.024 1.563-2.288V2.288Z"/><path fill="#070707" d="M89.424 95.42c-.863 0-1.563 1.024-1.563 2.288 0 1.264.7 2.288 1.563 2.288h9.014c.863 0 1.562-1.024 1.562-2.288 0-1.264-.7-2.288-1.562-2.288h-9.014ZM6.07 9.648c-.864 0-1.563 1.024-1.563 2.289 0 1.264.7 2.288 1.562 2.288H93.93c.863 0 1.563-1.024 1.563-2.288 0-1.265-.7-2.289-1.563-2.289H6.07ZM6.07 24.268c-.864 0-1.563 1.024-1.563 2.288 0 1.264.7 2.288 1.562 2.288H93.93c.863 0 1.563-1.024 1.563-2.288 0-1.264-.7-2.288-1.563-2.288H6.07ZM6.07 38.885c-.864 0-1.563 1.024-1.563 2.288 0 1.264.7 2.288 1.562 2.288H93.93c.863 0 1.563-1.024 1.563-2.288 0-1.264-.7-2.288-1.563-2.288H6.07ZM6.07 53.5c-.864 0-1.563 1.024-1.563 2.288 0 1.264.7 2.289 1.562 2.289H93.93c.863 0 1.563-1.025 1.563-2.289 0-1.264-.7-2.288-1.563-2.288H6.07Z"/><path fill="#070707" d="M17.06 55.788c0 1.265.7 2.289 1.562 2.289.864 0 1.563-1.024 1.563-2.288V11.937c0-1.265-.7-2.289-1.563-2.289s-1.562 1.024-1.562 2.289v43.852ZM4.507 55.788c0 1.265.7 2.289 1.562 2.289.864 0 1.563-1.024 1.563-2.288V11.937c0-1.265-.7-2.289-1.563-2.289s-1.562 1.024-1.562 2.289v43.852ZM29.61 55.788c0 1.265.7 2.289 1.562 2.289.864 0 1.563-1.024 1.563-2.288V11.937c0-1.265-.7-2.289-1.563-2.289s-1.562 1.024-1.562 2.289v43.852ZM42.163 55.788c0 1.265.7 2.289 1.563 2.289s1.563-1.024 1.563-2.288V11.937c0-1.265-.7-2.289-1.563-2.289s-1.563 1.024-1.563 2.289v43.852ZM54.713 55.788c0 1.265.7 2.289 1.563 2.289s1.563-1.024 1.563-2.288V11.936c0-1.265-.7-2.289-1.563-2.289s-1.563 1.024-1.563 2.289v43.852ZM67.264 55.788c0 1.265.7 2.289 1.563 2.289s1.562-1.024 1.562-2.288V11.937c0-1.265-.7-2.289-1.563-2.289s-1.562 1.024-1.562 2.289v43.852ZM79.816 55.788c0 1.265.7 2.289 1.563 2.289s1.563-1.024 1.563-2.288V11.937c0-1.265-.7-2.289-1.563-2.289s-1.563 1.024-1.563 2.289v43.852ZM92.367 55.788c0 1.265.7 2.289 1.563 2.289s1.562-1.024 1.562-2.288V11.937c0-1.265-.699-2.289-1.562-2.289-.864 0-1.563 1.024-1.563 2.289v43.852Z"/></svg>