<svg xmlns="http://www.w3.org/2000/svg" width="100" height="100" fill="none"><path fill="#000" d="m.625 91.02 21.702-21.715c.835-.835 2.337-.835 3.172 0l.835.835 15.524-15.533c-8.848-11.192-6.01-29.566 6.844-42.595C62.392-1.685 82.255-4.024 93.106 6.834c10.85 10.857 8.681 30.735-5.008 44.432-12.854 12.862-31.383 15.702-42.568 6.85L30.006 73.648l.835.835c.835.836.835 2.339 0 3.174L9.14 99.373c-.835.836-2.337.836-3.172 0L.625 94.028a2.12 2.12 0 0 1 0-3.008ZM45.03 26.21c-1.336 2.673-2.17 5.512-2.671 8.352l3.506 3.508 6.344-6.348-6.344-6.347-.835.835Zm23.538 4.176 6.343-6.348-6.343-6.348-6.344 6.348 6.344 6.348Zm-7.68-5.012-6.343 6.348 6.343 6.348 6.344-6.348-6.344-6.348Zm15.191-2.506 6.344-6.348-6.344-6.347-6.343 6.347 6.343 6.348Zm1.17 1.17 6.343 6.348 6.344-6.348-6.344-6.348-6.344 6.348Zm-1.17 1.336-6.343 6.348 6.343 6.348 6.344-6.348-6.344-6.348Zm-7.511 7.517-6.344 6.348 6.344 6.347 6.343-6.347-6.343-6.348Zm-7.68 7.516-6.343 6.348 6.343 6.348 6.344-6.348-6.344-6.348ZM59.72 39.24l-6.343-6.348-6.344 6.348 6.344 6.18 6.343-6.18Zm-6.343-8.853 6.343-6.348-6.343-6.348-6.344 6.348 6.344 6.348Zm-1.502-14.2c-1.17 1.17-2.17 2.34-3.005 3.51l3.339-3.341-.334-.168Zm1.335-1.169.167.334 3.338-3.34c-1.168.835-2.503 1.837-3.505 3.006Zm1.502 1.504 6.344 6.348 6.344-6.348-6.344-6.348-6.344 6.348Zm8.347-8.352-.835.836 6.344 6.347 6.343-6.347-3.506-3.509c-2.838.501-5.675 1.337-8.346 2.673Zm10.517-3.007 2.503 2.505 2.337-2.337c-1.502-.168-3.172-.335-4.84-.168Zm7.01.501-3.337 3.34 6.343 6.348 5.343-5.346c-2.338-2.337-5.176-3.673-8.348-4.342Zm9.683 5.512-5.343 5.346 6.344 6.348 3.338-3.34c-.834-3.176-2.17-6.015-4.34-8.354ZM94.774 21.7l-2.503 2.505 2.503 2.505c.334-1.836.168-3.507 0-5.01Zm-2.838 15.367c1.336-2.672 2.17-5.512 2.672-8.352L91.1 25.207l-6.343 6.348 6.344 6.348.834-.836ZM83.59 32.89l-6.344 6.348 6.344 6.348 6.344-6.348-6.344-6.348Zm1.503 14.031c1.17-1.17 2.17-2.338 3.004-3.508l-3.338 3.34.334.168Zm-1.169 1.337-.334-.335-3.338 3.34c1.169-.834 2.504-1.835 3.672-3.005Zm-1.67-1.503-6.343-6.348-6.344 6.348 6.344 6.347 6.343-6.347Zm-8.346 8.351.835-.835-6.344-6.348-6.344 6.348 3.506 3.508c2.84-.502 5.677-1.336 8.347-2.673Zm-10.516 3.006-2.504-2.505-2.503 2.505c1.669 0 3.337.168 5.007 0Zm-7.011-.5 3.338-3.34-6.343-6.349-5.343 5.346c2.338 2.339 5.176 3.675 8.348 4.343Zm-9.682-5.513 5.509-5.344-6.344-6.348-3.338 3.34c.667 3.174 2.002 6.014 4.173 8.352ZM42.19 41.577l2.504-2.505-2.504-2.505c-.334 1.836-.166 3.506 0 5.01Z"/></svg>