<svg xmlns="http://www.w3.org/2000/svg" width="100" height="100" fill="none"><path fill="#000" d="M86 10.848h-6.328v-.092c1.145-.145 2.191-.639 2.95-1.395.758-.756 1.176-1.72 1.178-2.72V4.175c0-1.107-.51-2.168-1.418-2.951C81.475.442 80.247 0 78.965 0H21.038c-1.282.001-2.51.442-3.418 1.224-.906.783-1.416 1.844-1.418 2.951v2.46c.003 1 .421 1.965 1.18 2.72.758.756 1.804 1.252 2.949 1.396v.097h-6.329c-5.002 0-9.624 2.306-12.126 6.048-2.501 3.742-2.501 8.352 0 12.094C4.378 32.732 9 35.036 14.002 35.036h7.013c2.106 8.267 8.79 15.109 17.87 18.293v3.439c.002 1.058.422 2.085 1.192 2.91.77.824 1.842 1.396 3.04 1.623v13.224h-8.982c-1.452 0-2.844.498-3.87 1.385-1.027.886-1.603 2.089-1.603 3.342v10.082h-.54c-2.138.003-3.87 1.5-3.874 3.347v3.97c.003 1.848 1.735 3.346 3.874 3.349h43.764c2.139-.003 3.87-1.5 3.873-3.348V92.68c-.003-1.847-1.735-3.344-3.873-3.347h-.54V79.252c0-1.253-.577-2.456-1.603-3.342-1.027-.887-2.42-1.385-3.871-1.385h-8.989V61.3c1.2-.226 2.274-.797 3.044-1.622.771-.824 1.193-1.852 1.195-2.911v-3.439c9.08-3.186 15.76-10.03 17.863-18.299h7.013c5.002 0 9.624-2.304 12.126-6.046 2.501-3.742 2.501-8.352 0-12.094-2.502-3.742-7.124-6.048-12.126-6.048l.002.006ZM20.41 4.175c.006-.296.283-.535.627-.54h57.93c.343.005.62.244.627.54v2.46c-.005.298-.283.537-.627.542h-57.93c-.345-.005-.622-.245-.627-.542v-2.46Zm-.08 27.221H14c-3.5 0-6.732-1.612-8.48-4.229-1.75-2.617-1.75-5.84 0-8.458 1.748-2.618 4.98-4.23 8.48-4.23h6.328v16.917Zm51.224 61.576v3.398H28.448v-3.398h43.106Zm-5.68-14.81c.696.007 1.258.491 1.267 1.091v10.082H32.869V79.254c.008-.6.57-1.084 1.266-1.091h31.74ZM47.33 74.526V61.414h5.343v13.112H47.33Zm9.58-20.018v2.261c-.01.554-.527 1.002-1.168 1.01H44.266c-.641-.009-1.16-.456-1.168-1.01v-2.26c.185.038.376.066.562.101.229.043.457.086.684.125.803.134 1.612.243 2.426.32.183.016.366.026.548.04.855.067 1.71.11 2.566.113H50.118c.856 0 1.71-.046 2.553-.112.188-.015.374-.026.561-.043.81-.076 1.615-.185 2.413-.32.235-.038.468-.083.703-.127.186-.025.373-.06.556-.098h.005Zm1.113-4.064c-.383.113-.772.209-1.162.296-.39.087-.733.171-1.105.246-.37.073-.762.148-1.146.21-.383.061-.803.112-1.207.159-.37.043-.739.09-1.108.118a29.46 29.46 0 0 1-1.617.07c-.446.012-.89.013-1.336 0-.55-.01-1.1-.029-1.642-.072-.363-.028-.724-.075-1.085-.116a25.949 25.949 0 0 1-2.357-.368 28.27 28.27 0 0 1-1.136-.253c-.374-.092-.761-.186-1.135-.296-5.074-1.456-9.488-4.254-12.618-7.997-3.132-3.744-4.82-8.243-4.828-12.86V10.815h50.923v18.771c-.008 4.617-1.696 9.116-4.826 12.859-3.13 3.743-7.542 6.542-12.615 8ZM86 31.396H79.67V14.48h6.328c3.5 0 6.732 1.611 8.48 4.23 1.75 2.616 1.75 5.84 0 8.457-1.748 2.617-4.98 4.23-8.48 4.23Z"/></svg>