<svg xmlns="http://www.w3.org/2000/svg" width="100" height="100" fill="none"><path fill="#000" d="M3.167 44.287c2.073-2.075 5.01-3.147 7.933-3.098-2.005-4.362-1.229-9.697 2.349-13.26 2.948-2.96 7.232-4.172 11.42-3.038a11.807 11.807 0 0 1-.42-3.1 11.67 11.67 0 0 1 3.456-8.314c3.444-3.457 8.667-4.46 13.26-2.339-.132-4.418 2.389-8.305 6.044-10.04 5.597-2.718 12.339-.21 14.733 5.53l21.981 52.014 10.832 10.83c7.008 7.002 6.979 18.308 0 25.285-6.98 6.977-18.301 7.004-25.308 0L58.562 83.86 6.638 61.941C-.438 58.99-2.274 49.717 3.166 44.288h.001Zm68.491 48.26c5.76 5.759 15.107 5.78 20.889 0 5.756-5.754 5.787-15.084 0-20.864l-4.005-4.004-20.888 20.866 4.004 4.003ZM15.66 30.14c-3.271 3.258-3.89 9.553 1.22 12.797l47.96 32.126 4.002-4.002L27.908 30.14c-3.39-3.387-8.86-3.398-12.248.001ZM30.116 15.69a8.568 8.568 0 0 0-2.541 6.107 8.6 8.6 0 0 0 2.542 6.133l40.937 40.924 4.032-4.021L42.95 16.874c-3.3-4.94-9.449-4.582-12.835-1.185ZM59.06 7.842c-1.69-4.05-6.458-5.887-10.497-3.924-4.159 1.973-5.588 7.377-3.014 11.216l31.793 47.447 3.412-3.41L59.06 7.84Zm6.383 78.49L86.33 65.468l-3.728-3.727c-.935.935-5.26 5.26-20.875 20.867l3.716 3.726ZM7.85 59.063l51.324 21.665 3.414-3.411L15.17 45.554c-3.337-2.108-7.378-1.47-9.795.944-3.882 3.873-2.552 10.466 2.473 12.564Z"/></svg>